<svg width="80" height="119" viewBox="0 0 80 119" fill="none" xmlns="http://www.w3.org/2000/svg">
<mask id="path-1-outside-1_504_517" maskUnits="userSpaceOnUse" x="0.5" y="0" width="80" height="119" fill="black">
<rect fill="white" x="0.5" width="80" height="119"/>
<path fill-rule="evenodd" clip-rule="evenodd" d="M1.5 1H40.25H79V39.75V78.5V117.25H40.25H1.5V78.5H40.25V39.75H1.5V1Z"/>
</mask>
<path d="M1.5 1V0H0.5V1H1.5ZM79 1H80V0H79V1ZM79 117.25V118.25H80V117.25H79ZM1.5 117.25H0.5V118.25H1.5V117.25ZM1.5 78.5V77.5H0.5V78.5H1.5ZM40.25 78.5V79.5H41.25V78.5H40.25ZM40.25 39.75H41.25V38.75H40.25V39.75ZM1.5 39.75H0.5V40.75H1.5V39.75ZM40.25 0H1.5V2H40.25V0ZM79 0H40.25V2H79V0ZM80 39.75V1H78V39.75H80ZM80 78.5V39.75H78V78.5H80ZM80 117.25V78.5H78V117.25H80ZM40.25 118.25H79V116.25H40.25V118.25ZM40.25 116.25H1.5V118.25H40.25V116.25ZM2.5 117.25V78.5H0.5V117.25H2.5ZM1.5 79.5H40.25V77.5H1.5V79.5ZM39.25 39.75V78.5H41.25V39.75H39.25ZM1.5 40.75H40.25V38.75H1.5V40.75ZM0.5 1V39.75H2.5V1H0.5Z" fill="#C778DD" mask="url(#path-1-outside-1_504_517)"/>
</svg>
