<svg width="28" height="41" viewBox="0 0 28 41" fill="none" xmlns="http://www.w3.org/2000/svg">
<mask id="path-1-outside-1_64_1295" maskUnits="userSpaceOnUse" x="0" y="0" width="28" height="41" fill="black">
<rect fill="white" width="28" height="41"/>
<path fill-rule="evenodd" clip-rule="evenodd" d="M1 1H14H27V14V27V40H14H1V27H14V14H1V1Z"/>
</mask>
<path d="M1 1V0H0V1H1ZM27 1H28V0H27V1ZM27 40V41H28V40H27ZM1 40H0V41H1V40ZM1 27V26H0V27H1ZM14 27V28H15V27H14ZM14 14H15V13H14V14ZM1 14H0V15H1V14ZM14 0H1V2H14V0ZM27 0H14V2H27V0ZM28 14V1H26V14H28ZM28 27V14H26V27H28ZM28 40V27H26V40H28ZM14 41H27V39H14V41ZM14 39H1V41H14V39ZM2 40V27H0V40H2ZM1 28H14V26H1V28ZM13 14V27H15V14H13ZM1 15H14V13H1V15ZM0 1V14H2V1H0Z" fill="#C778DD" mask="url(#path-1-outside-1_64_1295)"/>
</svg>
