<svg width="59" height="87" viewBox="0 0 59 87" fill="none" xmlns="http://www.w3.org/2000/svg">
<mask id="path-1-outside-1_4_63" maskUnits="userSpaceOnUse" x="0" y="0.250122" width="59" height="87" fill="black">
<rect fill="white" y="0.250122" width="59" height="87"/>
<path fill-rule="evenodd" clip-rule="evenodd" d="M1 1.25012H29.25H57.5V29.5001H29.25V57.7501H57.5V86.0001H29.25H1V57.7501V29.5001V1.25012Z"/>
</mask>
<path d="M1 1.25012V0.250122H0V1.25012H1ZM57.5 1.25012H58.5V0.250122H57.5V1.25012ZM57.5 29.5001V30.5001H58.5V29.5001H57.5ZM29.25 29.5001V28.5001H28.25V29.5001H29.25ZM29.25 57.7501H28.25V58.7501H29.25V57.7501ZM57.5 57.7501H58.5V56.7501H57.5V57.7501ZM57.5 86.0001V87.0001H58.5V86.0001H57.5ZM1 86.0001H0V87.0001H1V86.0001ZM29.25 0.250122H1V2.25012H29.25V0.250122ZM57.5 0.250122H29.25V2.25012H57.5V0.250122ZM58.5 29.5001V1.25012H56.5V29.5001H58.5ZM29.25 30.5001H57.5V28.5001H29.25V30.5001ZM30.25 57.7501V29.5001H28.25V57.7501H30.25ZM29.25 58.7501H57.5V56.7501H29.25V58.7501ZM56.5 57.7501V86.0001H58.5V57.7501H56.5ZM57.5 85.0001H29.25V87.0001H57.5V85.0001ZM1 87.0001H29.25V85.0001H1V87.0001ZM0 57.7501V86.0001H2V57.7501H0ZM0 29.5001V57.7501H2V29.5001H0ZM0 1.25012V29.5001H2V1.25012H0Z" fill="#C778DD" mask="url(#path-1-outside-1_4_63)"/>
</svg>
