<svg width="57" height="85" viewBox="0 0 57 85" fill="none" xmlns="http://www.w3.org/2000/svg">
<mask id="path-1-inside-1_4_39" fill="white">
<path fill-rule="evenodd" clip-rule="evenodd" d="M0.5 0H28.75H57V28.25V56.5V84.75H28.75H0.5V56.5H28.75V28.25H0.5V0Z"/>
</mask>
<path d="M0.5 0V-1H-0.5V0H0.5ZM57 0H58V-1H57V0ZM57 84.75V85.75H58V84.75H57ZM0.5 84.75H-0.5V85.75H0.5V84.75ZM0.5 56.5V55.5H-0.5V56.5H0.5ZM28.75 56.5V57.5H29.75V56.5H28.75ZM28.75 28.25H29.75V27.25H28.75V28.25ZM0.5 28.25H-0.5V29.25H0.5V28.25ZM28.75 -1H0.5V1H28.75V-1ZM57 -1H28.75V1H57V-1ZM58 28.25V0H56V28.25H58ZM58 56.5V28.25H56V56.5H58ZM58 84.75V56.5H56V84.75H58ZM28.75 85.75H57V83.75H28.75V85.75ZM28.75 83.75H0.5V85.75H28.75V83.75ZM1.5 84.75V56.5H-0.5V84.75H1.5ZM0.5 57.5H28.75V55.5H0.5V57.5ZM27.75 28.25V56.5H29.75V28.25H27.75ZM0.5 29.25H28.75V27.25H0.5V29.25ZM-0.5 0V28.25H1.5V0H-0.5Z" fill="#C778DD" mask="url(#path-1-inside-1_4_39)"/>
</svg>
